<?xml version="1.0" encoding="utf-8"?>
<!-- Generator: Adobe Illustrator 26.3.1, SVG Export Plug-In . SVG Version: 6.00 Build 0)  -->
<svg version="1.1" id="Layer_1" xmlns="http://www.w3.org/2000/svg" xmlns:xlink="http://www.w3.org/1999/xlink" x="0px" y="0px"
	 viewBox="0 0 1719 1532" style="enable-background:new 0 0 1719 1532;" xml:space="preserve">
<style type="text/css">
	.st0{fill:#FFFFFF;}
</style>
<g transform="translate(0.000000,1532.000000) scale(0.100000,-0.100000)">
	<path class="st0" d="M7655,15260c-490-48-920-343-1129-774c-110-227-141-364-141-631c0-211,8-263,73-455c139-413,480-743,903-875
		c70-21,88-31,92-48c5-21,56-277,78-387c6-30,14-71,19-90c14-53,50-253,50-272c0-10-2-18-4-18c-3,0-51-9-108-21s-114-23-128-26
		c-29-5-348-68-430-84c-30-6-73-15-95-20c-97-21-246-49-264-49c-11,0-53,33-98,78c-91,90-193,145-311,168c-94,18-132,18-228-2
		c-127-26-215-73-304-163c-191-193-233-461-110-699c148-287,491-402,791-264c73,33,164,107,209,168c47,62,110,191,110,223
		c0,11,5,23,11,26c13,9,164,40,614,129c208,41,327,65,373,76c23,5,47,10,52,10c14,0,27-37,41-113c17-95,81-423,99-502
		c4-22,13-65,19-95s22-111,36-180s31-150,36-180c6-30,14-73,19-95s13-65,19-95s22-111,36-180c27-133,40-195,55-275
		c6-27,20-97,31-155c12-58,25-123,30-145c4-22,12-67,19-100s15-78,20-100c4-22,26-132,49-245c22-113,59-295,81-405s47-236,56-280
		s40-204,70-355c58-295,64-326,94-465c10-49,24-119,30-155c13-73,13-70,68-350c23-113,46-224,52-248c15-62,13-90-7-96
		c-205-58-629-63-915-10c-46,8-105,19-133,24c-92,17-139,28-237,54c-173,47-490,156-513,177c-5,5-15,9-23,9c-19,0-304,132-422,196
		c-213,115-391,225-502,310c-21,16-59,45-85,64c-73,54-213,191-213,209c0,11,25,25,77,45c189,71,275,169,275,316c0,73-26,151-70,215
		c-27,40-93,86-474,333c-258,167-381,243-647,398c-152,88-565,294-591,294c-6,0-18,4-28,9c-51,26-115,48-195,66
		c-232,52-309-42-229-280c16-49,39-128,50-175s37-155,57-240c77-325,200-805,266-1040c17-58,37-130,45-160c59-217,138-342,249-394
		c90-43,230-33,335,23c79,42,85,46,121,74c20,15,43,27,51,27s28-19,44-42c55-83,189-253,277-352c284-322,691-642,1102-867
		c138-76,437-220,539-260c28-11,65-26,81-34c68-29,134-55,181-70c27-9,58-20,69-25c46-20,428-140,575-180c33-9,288-70,375-90
		c176-40,383-79,630-119c33-5,101-17,150-26c50-9,110-20,135-25c25-4,86-16,135-25c102-19,312-23,343-6c11,6,32,11,45,11
		c26,0,114,28,174,56c21,10,94,54,163,99s213,137,320,205c244,155,399,258,563,374c71,50,138,98,151,106c77,52,430,336,543,437
		c232,207,503,487,648,668c21,28,42,52,45,55c13,11,209,280,252,346c215,330,357,619,466,949c36,107,50,155,83,288c5,20,13,54,19,75
		c5,20,11,46,12,57c4,23,31,24,108,6c72-16,229-13,286,6c196,66,253,218,212,570c-9,82-22,189-28,238c-6,50-15,122-20,160
		c-11,92-26,197-45,320c-8,55-20,132-26,170c-6,39-15,97-20,130c-6,33-14,89-19,125c-11,85-47,294-60,348c-5,23-10,77-10,120
		c0,135-43,233-111,254c-33,9-49,9-94-6c-159-50-493-397-862-895c-145-196-564-805-598-868c-29-56-28-229,2-294
		c26-56,80-111,136-137c58-27,187-45,264-37c58,6,63,5,63-13c0-64-143-332-288-542c-290-419-723-856-1122-1133
		c-56-39-191-127-195-127c-2,0-36-19-77-43c-207-121-527-243-710-272c-52-8-47-20-109,295c-6,30-14,73-19,95s-14,67-20,100
		s-16,78-20,100c-8,36-72,355-83,415c-2,14-18,93-35,175c-17,83-38,186-46,230c-9,44-32,159-52,255c-19,96-39,198-44,225
		c-9,53-29,153-55,275c-14,69-152,754-162,810c-8,41-72,371-84,430c-6,30-15,73-20,95c-17,76-57,274-79,395c-6,30-14,75-19,100
		s-23,117-40,205c-18,88-36,176-40,195c-5,19-17,73-26,120s-23,119-32,160c-23,117-23,122,12,132c37,10,246,54,329,69
		c79,14,109,20,296,58c85,17,180,36,210,42s75,16,99,21l44,11l45-52c80-93,195-165,315-197c72-19,226-18,295,2
		c188,54,314,159,391,326c43,93,55,151,54,259c-2,266-157,478-413,565c-121,41-283,32-420-22c-146-57-289-215-331-364
		c-16-60-29-71-86-82c-26-5-68-13-93-18c-25-4-70-13-100-19c-30-5-68-13-85-17c-37-8-414-84-470-94c-132-25-185-32-199-27
		c-8,3-18,23-21,44c-7,47-19,109-45,238c-12,55-26,125-31,155c-6,30-15,75-20,100s-13,68-18,95c-6,28-13,62-16,76c-6,24,1,32,72,85
		c293,218,486,539,553,918c15,90,12,332-6,436c-79,459-357,831-773,1034C8169,15232,7893,15283,7655,15260z M7885,14466
		c130-25,232-78,328-171c193-187,235-499,99-742c-45-82-166-195-252-235c-127-61-136-63-275-63c-117,0-138,3-204,28
		c-96,35-146,65-215,127c-69,64-126,148-162,242c-27,68-29,82-28,213c0,127,3,146,27,208c80,205,252,349,467,392
		C7757,14482,7801,14483,7885,14466z"/>
	<path class="st0" d="M7165,4369c-233-24-474-112-665-242c-97-67-241-211-308-310c-151-220-232-488-232-767c0-464,204-860,571-1108
		c133-90,352-175,534-208c136-24,392-24,530,0c252,45,468,148,635,302l61,57l-87,88l-87,88l-56-50c-124-112-271-189-437-231
		c-78-20-113-23-289-22c-183,0-208,3-298,27c-354,95-629,345-745,677c-79,227-83,492-10,720c52,164,124,284,243,409
		c133,139,318,247,512,298c120,31,362,43,495,24c196-29,371-111,543-255l46-39l85,84c46,46,84,87,84,91c0,15-167,148-239,191
		C7808,4338,7484,4402,7165,4369z"/>
	<path class="st0" d="M12914,4370c-496-57-893-327-1089-743c-167-353-167-811,0-1164c261-553,891-848,1542-722
		c263,51,491,164,673,336c197,185,321,412,382,697c31,144,31,398,0,542c-61,285-185,512-382,697c-240,226-557,351-919,362
		C13046,4377,12953,4375,12914,4370z M13375,4096c348-91,613-332,731-662c45-126,64-240,64-389s-19-263-64-389
		c-118-330-381-569-731-663c-93-25-114-27-300-27c-184,0-208,2-296,26c-255,69-449,197-600,396c-69,91-143,246-176,367
		c-24,92-26,116-26,290s2,198,26,290c91,338,335,608,656,725c153,56,246,70,441,66C13250,4123,13289,4119,13375,4096z"/>
	<path class="st0" d="M1216,4333C1203,4307,44,1770,33,1742c-4-10,25-12,138-10l144,3l155,345l156,345l734,2l735,3l156-348l156-347
		l147-3c138-2,146-1,137,15c-5,10-271,592-591,1293s-587,1285-593,1298c-10,21-15,22-143,22h-133L1216,4333z M1673,3373
		c168-379,309-696,312-705c7-17-27-18-625-18c-502,0-631,3-627,13c29,77,623,1397,628,1397C1365,4060,1505,3751,1673,3373z"/>
	<path class="st0" d="M3140,3045V1730h140h140l2,1063l3,1063l839-1063l838-1063h114h114v1315v1315h-135h-135V3293l-1-1068l-23,26
		c-13,15-394,495-846,1068l-823,1041h-114h-113V3045z"/>
	<path class="st0" d="M8880,3045V1730h140h140v605v605h820h820v-605v-605h135h135v1315v1315h-135h-135l-2-587l-3-588l-817-3l-818-2
		v590v590h-140h-140V3045z"/>
	<path class="st0" d="M15080,3046V1730h140h140v415v415l343,1c188,0,393,4,455,7l113,7l296-418c163-231,301-421,308-423
		c6-3,74-3,151-2l140,3l-317,445c-174,245-315,447-313,449c1,2,37,18,79,37c126,54,185,94,281,190c78,77,99,105,138,185
		c68,140,90,242,90,419c-1,155-13,228-60,352c-84,222-285,398-550,481c-183,58-210,60-846,64l-588,5V3046z M16361,4088
		c261-71,420-222,474-452c19-81,19-273,0-355c-40-169-156-313-315-389c-169-82-195-85-707-89l-453-4v661v661l453-3
		C16262,4114,16266,4114,16361,4088z"/>
	<path class="st0" d="M7650,1252V994l-58,57c-158,153-433,141-591-26c-64-68-97-137-113-238c-47-302,178-552,470-523
		c104,11,169,41,240,112l62,62v-84v-84h55h55v620v620h-60h-60V1252z M7477,1020c68-33,110-79,146-157c30-65,32-223,3-298
		c-22-57-94-139-146-165c-182-93-403-1-461,192c-27,87-23,199,8,270c26,58,95,133,145,159C7266,1069,7378,1069,7477,1020z"/>
	<path class="st0" d="M11739,1481c-35-36-37-70-5-107c61-72,174,2,140,91c-8,19-55,45-84,45C11778,1510,11755,1497,11739,1481z"/>
	<path class="st0" d="M17000,1252V994l-58,57c-158,153-433,141-591-26c-64-68-97-137-113-238c-47-302,178-552,470-523
		c104,11,169,41,240,112l62,62v-84v-84h55h55v620v620h-60h-60V1252z M16827,1020c68-33,110-79,146-157c30-65,32-223,3-298
		c-22-57-94-139-146-165c-182-93-403-1-461,192c-27,87-23,199,8,270c26,58,95,133,145,159C16616,1069,16728,1069,16827,1020z"/>
	<path class="st0" d="M608,1440c-299-54-498-288-498-585c0-262,158-481,404-562c111-36,286-39,391-6c75,24,174,78,215,118l24,25
		l-39,40l-38,39l-38-34c-133-119-364-139-548-47c-67,33-157,121-193,188c-77,143-77,335,0,478c15,28,52,75,83,106
		c101,100,230,146,384,137c107-6,182-31,257-88c29-21,55-39,58-39s21,16,40,35c33,34,33,35,15,55c-35,39-123,89-199,115
		C840,1444,691,1456,608,1440z"/>
	<path class="st0" d="M4622,1435c-210-59-254-275-93-457c23-25,41-49,41-52s-33-27-72-54c-90-61-163-137-190-200
		c-26-57-28-160-5-214c90-214,468-264,698-91l61,46l81-80l82-80l33,38l33,37l-84,89l-83,88l23,40c23,40,73,184,73,211
		c0,14-14,22-66,38c-18,6-23-1-38-56c-22-78-56-160-66-156c-14,5-310,316-310,325c0,4,24,22,53,40c163,98,223,212,186,348
		c-14,52-81,116-139,134C4772,1449,4682,1452,4622,1435z M4808,1346c49-26,75-62,80-114c6-71-22-121-106-182c-113-83-108-82-158-25
		c-57,65-84,121-84,176c0,97,71,159,182,159C4754,1360,4793,1354,4808,1346z M4820,669l174-182l-34-29c-19-17-64-44-100-62
		c-61-29-72-31-180-31c-109,0-118,2-169,30c-73,40-104,89-109,169c-5,87,34,150,143,228c44,32,85,58,91,58S4725,768,4820,669z"/>
	<path class="st0" d="M5910,855V270h410h410v55v55h-350h-350v215v215h300h300v50v50h-300h-300v210v210l338,2l337,3l3,53l3,52h-400
		h-401V855z"/>
	<path class="st0" d="M14750,855V270h385h385v55v55h-325h-325v530v530h-60h-60V855z"/>
	<path class="st0" d="M11090,1245v-95h-75h-75v-50v-50h74h74l4-302l3-303l27-57c39-83,117-127,229-128c46,0,131,25,159,48
		c22,18,22,19,5,53c-10,19-19,35-20,37c-1,1-24-7-50-19c-89-39-179-13-217,62c-16,30-18,68-18,322v287h135h135v50v50h-135h-135v95
		v95h-60h-60V1245z"/>
	<path class="st0" d="M15700,1245v-95h-75h-75v-50v-50h74h74l4-302l3-303l27-57c39-83,117-127,229-128c46,0,131,25,159,48
		c22,18,22,19,5,53c-10,19-19,35-20,37c-1,1-24-7-50-19c-89-39-179-13-217,62c-16,30-18,68-18,322v287h135h135v50v50h-135h-135v95
		v95h-60h-60V1245z"/>
	<path class="st0" d="M1575,1154c-83-13-196-57-249-97c-19-14-19-15,4-53c13-21,25-41,27-43c1-2,21,8,44,24c97,64,244,90,345,60
		c101-29,154-106,154-224v-51h-147c-82,0-179-5-216-10c-171-25-250-103-250-246c1-141,101-232,276-250c120-12,232,24,306,98l41,42
		v-67v-67h56h56l-4,318c-5,376-9,394-92,478c-40,39-67,57-107,69C1764,1151,1628,1162,1575,1154z M1900,602c0-69-3-83-30-125
		c-94-148-358-170-448-37c-20,29-23,44-20,93c4,48,9,63,34,88c50,50,90,58,287,59h177V602z"/>
	<path class="st0" d="M2661,1149c-85-17-156-62-208-134l-22-30l-1,83v82h-55h-55V710V270h60h60v259c0,230,2,266,20,323
		c35,115,120,182,246,195l54,6v53c0,52-1,54-27,53C2717,1158,2685,1154,2661,1149z"/>
	<path class="st0" d="M3203,1150c-68-14-151-59-203-111c-176-176-168-507,16-669c92-80,253-123,386-102c79,12,199,65,237,105
		c25,27,21,46-18,81c-20,18-21,18-69-17c-58-43-88-56-165-68c-71-12-161,3-227,36c-64,32-132,111-153,175c-32,99-66,90,343,90
		c329,0,361,1,367,17c12,31-16,175-46,240C3590,1099,3401,1189,3203,1150z M3428,1030c74-32,136-104,162-187c11-36,20-69,20-74
		s-134-9-310-9h-310v24c0,66,63,175,128,220C3206,1064,3325,1074,3428,1030z"/>
	<path class="st0" d="M9451,1149c-61-12-160-60-205-99c-110-97-166-270-137-425c16-86,72-194,127-244c167-154,458-158,608-7
		c26,25,46,49,46,54s-18,21-41,36l-41,27l-36-37c-112-115-318-119-441-8c-29,26-62,69-78,102c-25,51-27,68-28,162
		c0,124,17,170,90,249c65,70,128,95,235,95c99,0,159-23,222-86l38-38l40,26c22,15,40,30,40,34c0,22-79,93-133,120
		C9661,1157,9557,1170,9451,1149z"/>
	<path class="st0" d="M10325,1154c-83-13-196-57-249-97c-19-14-19-15,4-53c13-21,25-41,27-43c1-2,21,8,44,24c97,64,244,90,345,60
		c101-29,154-106,154-224v-51h-147c-82,0-179-5-216-10c-171-25-250-103-250-246c1-141,101-232,276-250c120-12,232,24,306,98l41,42
		v-67v-67h56h56l-4,318c-5,376-9,394-92,478c-40,39-67,57-107,69C10514,1151,10378,1162,10325,1154z M10650,602c0-69-3-83-30-125
		c-94-148-358-170-448-37c-20,29-23,44-20,93c4,48,9,63,34,88c50,50,90,58,287,59h177V602z"/>
	<path class="st0" d="M12450,1153c-159-26-293-136-340-279c-44-131-36-256,25-380c42-86,102-144,190-185c226-106,487-24,590,184
		c139,284-6,602-299,656C12557,1160,12499,1161,12450,1153z M12664,1027c68-31,122-86,155-156c23-49,26-68,26-161
		c0-121-17-168-81-239c-153-171-430-130-531,77c-25,51-27,68-28,162c0,93,3,111,26,160C12309,1034,12499,1102,12664,1027z"/>
	<path class="st0" d="M13543,1149c-71-13-130-45-188-100l-55-52v77v76h-55h-55V710V270h59h60l3,282c3,274,4,285,27,336
		c29,64,95,125,158,146c54,19,169,21,224,5c50-16,105-61,132-112c21-40,22-54,25-349l3-308h60h61l-4,312c-4,295-5,316-26,369
		C13909,1111,13740,1188,13543,1149z"/>
	<path class="st0" d="M8080,873c0-304,10-381,55-458c51-88,147-140,278-151c128-11,236,30,320,120l37,41v-78v-77h55h55v440v440h-59
		h-60l-3-282c-3-271-4-285-26-333c-50-109-138-165-261-165c-40,0-91,5-112,11c-50,16-105,61-132,112c-21,40-22,54-25,350l-3,307h-60
		h-59V873z"/>
	<path class="st0" d="M11730,710V270h60h60v440v440h-60h-60V710z"/>
</g>
</svg>
